<?xml version="1.0" encoding="UTF-8" standalone="no"?>
<svg xmlns:sketch="http://www.bohemiancoding.com/sketch/ns" xmlns:xlink="http://www.w3.org/1999/xlink" height="13px" version="1.1" viewBox="0 0 13 13" width="13px" xmlns="http://www.w3.org/2000/svg">
    <!-- Generator: Sketch 3.5.2 (25235) - http://www.bohemiancoding.com/sketch -->
    <title>note_on</title>
    <desc>Created with Sketch.</desc>
    <defs></defs>
    <g fill="none" fill-rule="evenodd" id="Page-1" stroke="none" stroke-width="1" sketch:type="MSPage">
        <g id="note_on" sketch:type="MSArtboardGroup">
            <rect fill="#138CDE" height="13" id="Rectangle-40" width="13" x="0" y="0" sketch:type="MSShapeGroup"></rect>
            <path d="M2.81818182,4 L10.1818182,4 L11,4 L11,3 L10.1818182,3 L2.81818182,3 L2,3 L2,4 L2.81818182,4 L2.81818182,4 Z" fill="#FFFFFF" id="Shape" sketch:type="MSShapeGroup"></path>
            <path d="M2.81818182,7 L10.1818182,7 L11,7 L11,6 L10.1818182,6 L2.81818182,6 L2,6 L2,7 L2.81818182,7 L2.81818182,7 Z" fill="#FFFFFF" id="Shape-Copy" sketch:type="MSShapeGroup"></path>
            <path d="M2.81818182,10 L10.1818182,10 L11,10 L11,9 L10.1818182,9 L2.81818182,9 L2,9 L2,10 L2.81818182,10 L2.81818182,10 Z" fill="#FFFFFF" id="Shape-Copy-2" sketch:type="MSShapeGroup"></path>
        </g>
    </g>
</svg>